<svg width="48" height="48" viewBox="0 0 48 48" fill="none" xmlns="http://www.w3.org/2000/svg">
<path fill-rule="evenodd" clip-rule="evenodd" d="M24 34C29.5228 34 34 29.5228 34 24C34 18.4772 29.5228 14 24 14C18.4772 14 14 18.4772 14 24C14 29.5228 18.4772 34 24 34ZM22.1314 21.1429H19.7143C19.7143 18.5714 21.5475 16.8571 24.2857 16.8571C26.8366 16.8571 28.5714 18.4936 28.5714 20.7143C28.5714 22.1563 27.9719 23.2021 26.7143 24C25.528 24.7402 25.0571 25.0671 25.0571 25.99L25.1286 26.8571H22.7714L22.6714 25.9708C22.5555 24.4326 23.1977 23.6358 24.4286 22.8571C25.5792 22.1169 25.8571 21.7512 25.8571 20.8571C25.8571 19.8655 25.1313 19.1644 24 19.1644C22.8687 19.1644 22.1849 20.0854 22.1314 21.1429ZM25.5832 29.7818C25.5832 30.7912 24.9677 31.4161 23.9688 31.4161C22.9698 31.4161 22.3455 30.7912 22.3455 29.7818C22.3455 28.7627 22.9698 28.1379 23.9688 28.1379C24.9677 28.1379 25.5832 28.7627 25.5832 29.7818Z" fill="white" fill-opacity="0.75"/>
</svg>
