<svg width="24" height="24" viewBox="0 0 24 24" fill="none" xmlns="http://www.w3.org/2000/svg">
<path d="M9.5 8.5C10.33 8.5 11 7.83 11 7C11 6.17 10.33 5.5 9.5 5.5C8.67 5.5 8 6.17 8 7C8 7.83 8.67 8.5 9.5 8.5ZM9.5 10.5C8.67 10.5 8 11.17 8 12C8 12.83 8.67 13.5 9.5 13.5C10.33 13.5 11 12.83 11 12C11 11.17 10.33 10.5 9.5 10.5ZM9.5 15.5C8.67 15.5 8 16.17 8 17C8 17.83 8.67 18.5 9.5 18.5C10.33 18.5 11 17.83 11 17C11 16.17 10.33 15.5 9.5 15.5Z" fill="white" fill-opacity="0.75"/>
<path d="M14.5 8.5C15.33 8.5 16 7.83 16 7C16 6.17 15.33 5.5 14.5 5.5C13.67 5.5 13 6.17 13 7C13 7.83 13.67 8.5 14.5 8.5ZM14.5 10.5C13.67 10.5 13 11.17 13 12C13 12.83 13.67 13.5 14.5 13.5C15.33 13.5 16 12.83 16 12C16 11.17 15.33 10.5 14.5 10.5ZM14.5 15.5C13.67 15.5 13 16.17 13 17C13 17.83 13.67 18.5 14.5 18.5C15.33 18.5 16 17.83 16 17C16 16.17 15.33 15.5 14.5 15.5Z" fill="white" fill-opacity="0.75"/>
</svg>
