<svg width="24" height="24" viewBox="0 0 24 24" fill="none" xmlns="http://www.w3.org/2000/svg">
<path d="M12 8.5C12.83 8.5 13.5 7.83 13.5 7C13.5 6.17 12.83 5.5 12 5.5C11.17 5.5 10.5 6.17 10.5 7C10.5 7.83 11.17 8.5 12 8.5ZM12 10.5C11.17 10.5 10.5 11.17 10.5 12C10.5 12.83 11.17 13.5 12 13.5C12.83 13.5 13.5 12.83 13.5 12C13.5 11.17 12.83 10.5 12 10.5ZM12 15.5C11.17 15.5 10.5 16.17 10.5 17C10.5 17.83 11.17 18.5 12 18.5C12.83 18.5 13.5 17.83 13.5 17C13.5 16.17 12.83 15.5 12 15.5Z" fill="white" fill-opacity="0.75"/>
</svg>
