<svg width="32" height="32" viewBox="0 0 32 32" fill="none" xmlns="http://www.w3.org/2000/svg">
<path d="M9 10C9 9.44772 9.44772 9 10 9H13C13.5523 9 14 9.44772 14 10V13C14 13.5523 13.5523 14 13 14H10C9.44772 14 9 13.5523 9 13V10Z" fill="white" fill-opacity="0.75"/>
<path d="M9 19C9 18.4477 9.44772 18 10 18H13C13.5523 18 14 18.4477 14 19V22C14 22.5523 13.5523 23 13 23H10C9.44772 23 9 22.5523 9 22V19Z" fill="white" fill-opacity="0.75"/>
<path d="M19 9C18.4477 9 18 9.44772 18 10V13C18 13.5523 18.4477 14 19 14H22C22.5523 14 23 13.5523 23 13V10C23 9.44772 22.5523 9 22 9H19Z" fill="white" fill-opacity="0.75"/>
<path d="M18 19C18 18.4477 18.4477 18 19 18H22C22.5523 18 23 18.4477 23 19V22C23 22.5523 22.5523 23 22 23H19C18.4477 23 18 22.5523 18 22V19Z" fill="white" fill-opacity="0.75"/>
</svg>
